<svg width="61" height="61" viewBox="0 0 61 61" xmlns="http://www.w3.org/2000/svg"><title>email-icon</title><path d="M30.5 61C47.345 61 61 47.345 61 30.5S47.345 0 30.5 0 0 13.655 0 30.5 13.655 61 30.5 61zm-5.338-23.958v1.965l6.5 5.982c.16.158.372.243.59.243.035 0 .074 0 .11-.016.254-.035.48-.175.62-.384l18-27.877-25.82 20.086zm23.72-21.27L11.91 27.495c-.306.103-.534.347-.593.68-.06.31.06.625.312.832l5.786 4.61L48.88 15.772zM23.42 36.626c0-.28.126-.524.337-.696l18.53-14.42-24.084 13.672v7.286c0 .365.228.68.567.817.1.035.2.052.302.052.247 0 .49-.104.66-.294l3.688-4.278v-2.14z" fill="#455C7B" fill-rule="evenodd"/></svg>