<?xml version="1.0" encoding="UTF-8" standalone="no"?>
<svg width="61px" height="61px" viewBox="0 0 61 61" version="1.1" xmlns="http://www.w3.org/2000/svg" xmlns:xlink="http://www.w3.org/1999/xlink" xmlns:sketch="http://www.bohemiancoding.com/sketch/ns">
    <!-- Generator: Sketch 3.3.2 (12043) - http://www.bohemiancoding.com/sketch -->
    <title>email-icon</title>
    <desc>Created with Sketch.</desc>
    <defs></defs>
    <g id="Page-1" stroke="none" stroke-width="1" fill="none" fill-rule="evenodd" sketch:type="MSPage">
        <path d="M30.5,61 C47.3446849,61 61,47.3446849 61,30.5 C61,13.6553151 47.3446849,0 30.5,0 C13.6553151,0 0,13.6553151 0,30.5 C0,47.3446849 13.6553151,61 30.5,61 Z M25.1622506,37.0415459 L25.1622506,39.0067633 L31.6631202,44.989372 C31.8231202,45.1476329 32.033555,45.2328502 32.2509463,45.2328502 C32.287468,45.2328502 32.3257289,45.2328502 32.3605115,45.2171981 C32.6161637,45.1824155 32.8422506,45.0415459 32.9813811,44.8328502 L50.9813811,16.9563285 L25.1622506,37.0415459 Z M48.8805115,15.7719807 L11.9118159,27.4954589 C11.6057289,27.5980676 11.3779028,27.8415459 11.3187724,28.1737198 C11.2596419,28.4850242 11.3813811,28.7998068 11.6318159,29.0067633 L17.4179028,33.6171981 L48.8805115,15.7719807 Z M23.4231202,36.6258937 C23.4231202,36.3458937 23.5483376,36.1024155 23.7587724,35.9302415 L42.2909463,21.5111111 L18.2057289,35.1824155 L18.2057289,42.4676329 C18.2057289,42.8328502 18.433555,43.1476329 18.7726854,43.2850242 C18.8718159,43.3198068 18.9726854,43.3371981 19.0752941,43.3371981 C19.3222506,43.3371981 19.5639898,43.2328502 19.7344246,43.043285 L23.4231202,38.7650242 L23.4231202,36.6258937 Z" id="email-icon" fill="#455C7B" sketch:type="MSShapeGroup"></path>
    </g>
</svg>