<?xml version="1.0" encoding="UTF-8" standalone="no"?>
<svg width="63px" height="61px" viewBox="0 0 63 61" version="1.1" xmlns="http://www.w3.org/2000/svg" xmlns:xlink="http://www.w3.org/1999/xlink" xmlns:sketch="http://www.bohemiancoding.com/sketch/ns">
    <!-- Generator: Sketch 3.3.2 (12043) - http://www.bohemiancoding.com/sketch -->
    <title>github-icon</title>
    <desc>Created with Sketch.</desc>
    <defs></defs>
    <g id="Page-1" stroke="none" stroke-width="1" fill="none" fill-rule="evenodd" sketch:type="MSPage">
        <g id="github-icon" sketch:type="MSLayerGroup" fill="#455C7B">
            <path d="M31.2175254,0 C13.978822,0 0,13.9762373 0,31.2175254 C0,45.0102458 8.94477119,56.7119068 21.3484492,60.8397458 C22.9086017,61.1287203 23.4813814,60.1625424 23.4813814,59.3380085 C23.4813814,58.5936017 23.4524322,56.1344746 23.4389915,53.5259492 C14.7542458,55.4143644 12.921661,49.8426864 12.921661,49.8426864 C11.5016017,46.2343814 9.45551695,45.2749237 9.45551695,45.2749237 C6.62315254,43.3373983 9.66901695,43.3772034 9.66901695,43.3772034 C12.8037966,43.5974237 14.4544153,46.594178 14.4544153,46.594178 C17.2387034,51.3666525 21.7573559,49.9869153 23.5387627,49.1892627 C23.8189492,47.1716102 24.6279746,45.7944576 25.5207458,45.0148983 C18.5869068,44.2255169 11.2979237,41.5487542 11.2979237,29.5870678 C11.2979237,26.178822 12.5174068,23.3940169 14.5143814,21.207839 C14.1902542,20.4215593 13.1217203,17.2464576 14.8167966,12.9464746 C14.8167966,12.9464746 17.4382458,12.1074661 23.403839,16.1463898 C25.8939831,15.4547119 28.5645424,15.107839 31.2175254,15.0959492 C33.8705085,15.107839 36.5431356,15.4547119 39.0379322,16.1463898 C44.9962881,12.1074661 47.6141186,12.9464746 47.6141186,12.9464746 C49.3133305,17.2464576 48.2442797,20.4215593 47.9201525,21.207839 C49.9217797,23.3940169 51.1329915,26.178822 51.1329915,29.5870678 C51.1329915,41.5771864 43.8300508,44.2172458 36.8786356,44.9900847 C37.9983475,45.9588475 38.9960593,47.8586356 38.9960593,50.7711271 C38.9960593,54.9480763 38.9598729,58.3097966 38.9598729,59.3380085 C38.9598729,60.1687458 39.5217966,61.142161 41.104178,60.8356102 C53.5011356,56.7031186 62.4345339,45.0055932 62.4345339,31.2175254 C62.4345339,13.9762373 48.4577797,0 31.2175254,0" id="Fill-4" sketch:type="MSShapeGroup"></path>
            <path d="M11.6919784,44.9869731 C11.6232242,45.1420579 11.3792242,45.1885833 11.156936,45.0820918 C10.9305123,44.9802528 10.8033428,44.7688206 10.8767496,44.6132189 C10.943953,44.4534816 11.1884699,44.409024 11.4143767,44.5160324 C11.6413174,44.6178714 11.7705547,44.8313714 11.6919784,44.9869731" id="Fill-5" sketch:type="MSShapeGroup"></path>
            <path d="M13.2275338,46.3571288 C13.0786524,46.4951542 12.7876101,46.4310525 12.5901355,46.2128999 C12.3859406,45.9952644 12.3476863,45.704222 12.4986355,45.5641288 C12.6521694,45.4261033 12.9344236,45.490722 13.1391355,45.7083576 C13.3433304,45.9285779 13.3831355,46.2175525 13.2275338,46.3571288" id="Fill-6" sketch:type="MSShapeGroup"></path>
            <path d="M14.280983,48.1101961 C14.0897118,48.243052 13.7769575,48.1184673 13.5836186,47.8408656 C13.3923474,47.5632639 13.3923474,47.2303486 13.5877541,47.0969758 C13.7816101,46.9636029 14.0897118,47.0835351 14.2856355,47.359069 C14.4763897,47.6413232 14.4763897,47.9742385 14.280983,48.1101961" id="Fill-7" sketch:type="MSShapeGroup"></path>
            <path d="M16.0625909,50.1404959 C15.8914807,50.3291823 15.5270316,50.2785213 15.2602858,50.0210806 C14.9873367,49.7693264 14.9113451,49.4121145 15.0829723,49.2234281 C15.2561502,49.0342247 15.6226672,49.0874705 15.8914807,49.3428434 C16.1623621,49.5940806 16.2450739,49.9538773 16.0625909,50.1404959" id="Fill-8" sketch:type="MSShapeGroup"></path>
            <path d="M18.3651462,50.8259022 C18.2896717,51.0704191 17.9386632,51.1815632 17.58507,51.0776564 C17.2319937,50.9706479 17.0009174,50.6842581 17.0722564,50.4371564 C17.1456632,50.1910886 17.4982225,50.075292 17.8544005,50.1864361 C18.2069598,50.2929276 18.438553,50.5772496 18.3651462,50.8259022" id="Fill-9" sketch:type="MSShapeGroup"></path>
            <path d="M20.9855508,51.1166335 C20.994339,51.3740742 20.6945085,51.5875742 20.323339,51.5922267 C19.9501017,51.6004979 19.6482034,51.3921674 19.6440678,51.1388623 C19.6440678,50.8788369 19.937178,50.6674047 20.3104153,50.6612013 C20.6815847,50.653964 20.9855508,50.8607437 20.9855508,51.1166335" id="Fill-10" sketch:type="MSShapeGroup"></path>
            <path d="M23.5598048,51.0179568 C23.6042624,51.2691941 23.3463048,51.5271517 22.9777201,51.5959059 C22.6153387,51.6620754 22.2798387,51.5069907 22.2338302,51.2578212 C22.1888557,51.0003805 22.4514658,50.7424229 22.8133302,50.6757364 C23.1824319,50.6116347 23.5127624,50.7625839 23.5598048,51.0179568" id="Fill-11" sketch:type="MSShapeGroup"></path>
        </g>
    </g>
</svg>