<?xml version="1.0" encoding="UTF-8" standalone="no"?>
<svg width="61px" height="61px" viewBox="0 0 61 61" version="1.1" xmlns="http://www.w3.org/2000/svg" xmlns:xlink="http://www.w3.org/1999/xlink" xmlns:sketch="http://www.bohemiancoding.com/sketch/ns">
    <!-- Generator: Sketch 3.3.2 (12043) - http://www.bohemiancoding.com/sketch -->
    <title>instagram-icon</title>
    <desc>Created with Sketch.</desc>
    <defs></defs>
    <g id="Page-1" stroke="none" stroke-width="1" fill="none" fill-rule="evenodd" sketch:type="MSPage">
        <g id="instagram-icon" sketch:type="MSLayerGroup" fill="#455C7B">
            <path d="M42.505,6.625 C42.505,5.95 43.0675,5.375 43.755,5.375 L51.255,5.375 C51.9475,5.375 52.505,5.95 52.505,6.625 L52.505,14.125 C52.505,14.8275 51.9475,15.375 51.255,15.375 L43.755,15.375 C43.0675,15.375 42.505,14.8275 42.505,14.125 L42.505,6.625 L42.505,6.625 Z M17.505,17.875 L21.7325,17.875 C24.1075,16.3 26.9475,15.375 30.005,15.375 C33.0625,15.375 35.905,16.3 38.2825,17.875 L60.005,17.875 L60.005,9.125 C60.005,4.3025 56.08,0.375 51.255,0.375 L17.505,0.375 L17.505,17.875 L17.505,17.875 Z" id="Fill-7384" sketch:type="MSShapeGroup"></path>
            <path d="M30.005,36 C33.1075,36 35.63,33.4775 35.63,30.375 C35.63,27.275 33.1075,24.75 30.005,24.75 C26.905,24.75 24.38,27.275 24.38,30.375 C24.38,33.4775 26.905,36 30.005,36" id="Fill-7385" sketch:type="MSShapeGroup"></path>
            <path d="M45.005,7.875 L50.005,7.875 L50.005,12.875 L45.005,12.875 L45.005,7.875 Z" id="Fill-7386" sketch:type="MSShapeGroup"></path>
            <path d="M41.155,20.375 C43.54,23.025 45.005,26.525 45.005,30.375 C45.005,38.65 38.2775,45.375 30.005,45.375 C21.7325,45.375 15.005,38.65 15.005,30.375 C15.005,26.525 16.47,23.025 18.8575,20.375 L0.005,20.375 L0.005,51.625 C0.005,56.45 3.93,60.375 8.755,60.375 L51.255,60.375 C56.08,60.375 60.005,56.45 60.005,51.625 L60.005,20.375 L41.155,20.375" id="Fill-7387" sketch:type="MSShapeGroup"></path>
            <path d="M10.005,0.375 L15.005,0.375 L15.005,17.875 L10.005,17.875 L10.005,0.375 Z" id="Fill-7388" sketch:type="MSShapeGroup"></path>
            <path d="M30.005,22.25 C34.485,22.25 38.13,25.9 38.13,30.375 C38.13,34.8525 34.485,38.5 30.005,38.5 C25.525,38.5 21.88,34.8525 21.88,30.375 C21.88,25.9 25.525,22.25 30.005,22.25 L30.005,22.25 Z M30.005,42.875 C36.9,42.875 42.505,37.275 42.505,30.375 C42.505,23.475 36.9,17.875 30.005,17.875 C23.115,17.875 17.505,23.475 17.505,30.375 C17.505,37.275 23.115,42.875 30.005,42.875 L30.005,42.875 Z" id="Fill-7389" sketch:type="MSShapeGroup"></path>
            <path d="M7.505,17.875 L7.505,0.5 C3.2775,1.125 0.005,4.725 0.005,9.125 L0.005,17.875 L7.505,17.875" id="Fill-7390" sketch:type="MSShapeGroup"></path>
        </g>
    </g>
</svg>