<svg width="61" height="61" viewBox="0 0 61 61" xmlns="http://www.w3.org/2000/svg"><title>instagram-icon</title><g fill="#455C7B" fill-rule="evenodd"><path d="M42.505 6.625c0-.675.563-1.25 1.25-1.25h7.5c.692 0 1.25.575 1.25 1.25v7.5c0 .703-.558 1.25-1.25 1.25h-7.5c-.688 0-1.25-.547-1.25-1.25v-7.5zm-25 11.25h4.228c2.375-1.575 5.215-2.5 8.272-2.5 3.058 0 5.9.925 8.277 2.5h21.723v-8.75c0-4.822-3.925-8.75-8.75-8.75h-33.75v17.5zM30.005 36c3.103 0 5.625-2.523 5.625-5.625 0-3.1-2.523-5.625-5.625-5.625-3.1 0-5.625 2.525-5.625 5.625 0 3.102 2.525 5.625 5.625 5.625"/><path d="M45.005 7.875h5v5h-5v-5zM41.155 20.375c2.385 2.65 3.85 6.15 3.85 10 0 8.275-6.727 15-15 15-8.272 0-15-6.725-15-15 0-3.85 1.465-7.35 3.853-10H.005v31.25c0 4.825 3.925 8.75 8.75 8.75h42.5c4.825 0 8.75-3.925 8.75-8.75v-31.25h-18.85M10.005.375h5v17.5h-5V.375z"/><path d="M30.005 22.25c4.48 0 8.125 3.65 8.125 8.125 0 4.477-3.645 8.125-8.125 8.125s-8.125-3.648-8.125-8.125c0-4.475 3.645-8.125 8.125-8.125zm0 20.625c6.895 0 12.5-5.6 12.5-12.5s-5.605-12.5-12.5-12.5c-6.89 0-12.5 5.6-12.5 12.5s5.61 12.5 12.5 12.5zM7.505 17.875V.5c-4.228.625-7.5 4.225-7.5 8.625v8.75h7.5"/></g></svg>