<?xml version="1.0" encoding="UTF-8" standalone="no"?>
<svg width="61px" height="61px" viewBox="0 0 61 61" version="1.1" xmlns="http://www.w3.org/2000/svg" xmlns:xlink="http://www.w3.org/1999/xlink" xmlns:sketch="http://www.bohemiancoding.com/sketch/ns">
    <!-- Generator: Sketch 3.3.2 (12043) - http://www.bohemiancoding.com/sketch -->
    <title>linkedin-icon</title>
    <desc>Created with Sketch.</desc>
    <defs>
        <path id="path-1" d="M0,0 L60.5801517,0 L60.5801517,60.554069 L0,60.554069 L0,0 Z"></path>
    </defs>
    <g id="Page-1" stroke="none" stroke-width="1" fill="none" fill-rule="evenodd" sketch:type="MSPage">
        <g id="linkedin-icon" sketch:type="MSLayerGroup">
            <mask id="mask-2" sketch:name="Clip 2" fill="white">
                <use xlink:href="#path-1"></use>
            </mask>
            <g id="Clip-2"></g>
            <path d="M51.6211448,51.6215655 L42.6419448,51.6215655 L42.6419448,37.5625379 C42.6419448,34.2083793 42.5805241,29.8963103 37.973131,29.8963103 C33.2971655,29.8963103 32.5811517,33.5487379 32.5811517,37.3198 L32.5811517,51.6215655 L23.6023724,51.6215655 L23.6023724,22.7113517 L32.2218828,22.7113517 L32.2218828,26.6612069 L32.3413586,26.6612069 C33.5403241,24.3886414 36.471269,21.9919724 40.8426552,21.9919724 C49.941331,21.9919724 51.6211448,27.9796483 51.6211448,35.763669 L51.6211448,51.6215655 L51.6211448,51.6215655 Z M13.4763724,18.7593931 C10.596331,18.7593931 8.26528966,16.4241448 8.26528966,13.5483103 C8.26528966,10.6745793 10.596331,8.34017241 13.4763724,8.34017241 C16.3488414,8.34017241 18.6832483,10.6745793 18.6832483,13.5483103 C18.6832483,16.4241448 16.3488414,18.7593931 13.4763724,18.7593931 L13.4763724,18.7593931 Z M8.98172414,22.7113517 L17.9672345,22.7113517 L17.9672345,51.6215655 L8.98172414,51.6215655 L8.98172414,22.7113517 Z M56.0960207,0 L4.47151034,0 C2.00458621,0 0,1.95536552 0,4.36633793 L0,56.2079241 C0,58.621 2.00458621,60.5793103 4.47151034,60.5793103 L56.0960207,60.5793103 C58.5671517,60.5793103 60.5801517,58.621 60.5801517,56.2079241 L60.5801517,4.36633793 C60.5801517,1.95536552 58.5671517,0 56.0960207,0 L56.0960207,0 Z" id="Fill-1" fill="#455C7B" sketch:type="MSShapeGroup" mask="url(#mask-2)"></path>
        </g>
    </g>
</svg>