<svg width="69" height="57" viewBox="0 0 69 57" xmlns="http://www.w3.org/2000/svg" xmlns:xlink="http://www.w3.org/1999/xlink"><title>twitter-icon</title><defs><path id="a" d="M.015.207h68.272v55.898H.015"/></defs><g fill="none" fill-rule="evenodd"><mask id="b" fill="#fff"><use xlink:href="#a"/></mask><path d="M21.476 56.12C13.564 56.12 6.2 53.783 0 49.778c1.096.13 2.21.197 3.342.197 6.564 0 12.605-2.256 17.4-6.042-6.13-.114-11.305-4.195-13.088-9.803.855.165 1.733.253 2.636.253 1.278 0 2.515-.172 3.69-.495-6.408-1.296-11.237-7-11.237-13.84v-.178c1.89 1.057 4.05 1.692 6.347 1.766-3.76-2.532-6.233-6.852-6.233-11.75 0-2.586.69-5.01 1.897-7.095 6.91 8.54 17.233 14.16 28.876 14.75-.24-1.034-.363-2.112-.363-3.218 0-7.795 6.273-14.115 14.01-14.115 4.03 0 7.67 1.714 10.227 4.458 3.19-.634 6.19-1.808 8.896-3.426-1.046 3.295-3.267 6.06-6.16 7.808 2.834-.34 5.534-1.1 8.047-2.222-1.88 2.83-4.254 5.317-6.99 7.307.026.605.04 1.214.04 1.826 0 18.65-14.092 40.16-39.86 40.16" fill="#455C7B" mask="url(#b)"/></g></svg>