<?xml version="1.0" encoding="UTF-8" standalone="no"?>
<svg width="69px" height="57px" viewBox="0 0 69 57" version="1.1" xmlns="http://www.w3.org/2000/svg" xmlns:xlink="http://www.w3.org/1999/xlink" xmlns:sketch="http://www.bohemiancoding.com/sketch/ns">
    <!-- Generator: Sketch 3.3.2 (12043) - http://www.bohemiancoding.com/sketch -->
    <title>twitter-icon</title>
    <desc>Created with Sketch.</desc>
    <defs>
        <path id="path-1" d="M0.0149866477,0.206863857 L68.2866601,0.206863857 L68.2866601,56.1049004 L0.0149866477,56.1049004"></path>
    </defs>
    <g id="Page-1" stroke="none" stroke-width="1" fill="none" fill-rule="evenodd" sketch:type="MSPage">
        <g id="twitter-icon" sketch:type="MSLayerGroup">
            <mask id="mask-2" sketch:name="Clip 2" fill="white">
                <use xlink:href="#path-1"></use>
            </mask>
            <g id="Clip-2"></g>
            <path d="M21.4758661,56.12 C13.564165,56.12 6.19997614,53.7833444 0,49.77844 C1.0960235,49.9087995 2.21127986,49.9754891 3.34202243,49.9754891 C9.90567456,49.9754891 15.9465425,47.7188612 20.7412706,43.9331519 C14.6107326,43.8191503 9.43684226,39.7382448 7.65418052,34.1302714 C8.50941855,34.2951082 9.38713655,34.3834405 10.2898323,34.3834405 C11.5676938,34.3834405 12.8053411,34.211054 13.9810436,33.8884269 C7.57175396,32.5918787 2.7428063,26.8867648 2.7428063,20.0476746 C2.7428063,19.988283 2.7428063,19.9291431 2.74380541,19.8702549 C4.63287235,20.9274752 6.79294784,21.5624113 9.08965159,21.6356441 C5.3305008,19.104456 2.8569546,14.7839709 2.8569546,9.88693471 C2.8569546,7.30012987 3.54783906,4.87539354 4.75376464,2.79064879 C11.6636083,11.3304518 21.986661,16.9500016 33.6302872,17.5386325 C33.3914999,16.5055715 33.2673605,15.4282185 33.2673605,14.3219247 C33.2673605,6.52678117 39.5402717,0.206863857 47.2776281,0.206863857 C51.3070381,0.206863857 54.9480442,1.92116628 57.5037671,4.66450314 C60.694924,4.03132861 63.6932526,2.8565835 66.400091,1.23916987 C65.354023,4.53515031 63.132752,7.30138816 60.2400792,9.04840628 C63.0740543,8.70715641 65.7741487,7.94840395 68.2866601,6.82575229 C66.4083336,9.65641489 64.03295,12.1425561 61.2958886,14.132677 C61.3228645,14.7379173 61.3363525,15.3466809 61.3363525,15.9587161 C61.3363525,34.6114438 47.2449072,56.12 21.4758661,56.12" id="Fill-1" fill="#455C7B" sketch:type="MSShapeGroup" mask="url(#mask-2)"></path>
        </g>
    </g>
</svg>